<svg width="83" height="84" viewBox="0 0 83 84" fill="none" xmlns="http://www.w3.org/2000/svg">
<g clip-path="url(#clip0_56_630)">
<path d="M72.9234 51.4784C72.712 51.6047 72.4776 51.6878 72.2339 51.7231C71.9902 51.7584 71.7419 51.745 71.5033 51.6839L9.82022 36.0253C9.34952 35.8929 8.94916 35.5818 8.70451 35.1585C8.45986 34.7351 8.39028 34.2329 8.51059 33.759C8.6309 33.285 8.93159 32.8768 9.34855 32.6214C9.76551 32.366 10.2657 32.2836 10.7426 32.3917L72.4257 48.0504C72.785 48.1417 73.1092 48.3375 73.3572 48.613C73.6053 48.8885 73.7661 49.2313 73.8193 49.5982C73.8726 49.9651 73.8159 50.3395 73.6564 50.6741C73.497 51.0088 73.2419 51.2887 72.9234 51.4784V51.4784Z" fill="#4F4F4F"/>
<path d="M64.7699 39.5976C64.4829 39.4957 64.1989 39.3919 63.9221 39.2935C60.1119 37.9321 57.809 37.1124 53.2947 29.5263C50.9575 25.5988 48.1002 22.9353 44.81 21.6205C42.3819 20.6476 39.7299 20.3916 36.7012 20.8384C36.6595 20.8396 36.618 20.8334 36.5785 20.8201C33.9595 18.4103 30.3967 17.8727 27.6958 19.4799C24.9949 21.0872 23.7691 24.4744 24.6361 27.9227C24.6283 27.9628 24.6139 28.0013 24.5934 28.0367C24.0168 28.8018 23.5005 29.6106 23.0492 30.4557C22.9828 30.5812 22.9458 30.7201 22.941 30.8619C22.9361 31.0038 22.9635 31.1449 23.0212 31.2746C23.0788 31.4043 23.1651 31.5193 23.2736 31.6108C23.3822 31.7023 23.5101 31.7679 23.6477 31.8028L65.6958 42.4735C65.885 42.5216 66.0845 42.5095 66.2665 42.4388C66.4485 42.3681 66.6039 42.2423 66.7109 42.079C66.818 41.9158 66.8714 41.7232 66.8637 41.5281C66.856 41.333 66.7876 41.1452 66.6681 40.9908C66.1832 40.3528 65.5239 39.8689 64.7699 39.5976Z" fill="#4F4F4F"/>
<path d="M24.3177 46.7651C28.8339 54.3543 28.4579 56.7681 27.8333 60.7644C27.7878 61.0547 27.7411 61.3497 27.6962 61.6546C27.5743 62.4324 27.6777 63.2288 27.9943 63.9496C28.3108 64.6704 28.8272 65.2854 29.4824 65.7218C30.8828 66.6613 32.6907 66.6859 34.2023 65.7864L55.4692 53.1309C55.6288 53.0361 55.7566 52.8962 55.8365 52.7287C55.9164 52.5613 55.9449 52.3739 55.9183 52.1903C55.8916 52.0067 55.8111 51.8351 55.687 51.6973C55.5628 51.5595 55.4005 51.4616 55.2206 51.416L24.3791 43.5867C24.2059 43.543 24.0238 43.5498 23.8542 43.6061C23.6847 43.6624 23.5348 43.766 23.4222 43.9047C23.3095 44.0434 23.2389 44.2113 23.2185 44.3888C23.1981 44.5663 23.2288 44.7459 23.3071 44.9065C23.6073 45.5178 23.9442 46.1374 24.3177 46.7651Z" fill="#4F4F4F"/>
<path d="M54.5447 64.5981C55.9995 63.7308 57.1923 62.486 57.9968 60.9956C58.8014 59.5053 59.1875 57.8249 59.1143 56.1329C59.1102 56.0521 59.0853 55.9738 59.0421 55.9055C58.9988 55.8372 58.9386 55.7813 58.8673 55.7431C58.796 55.705 58.716 55.6859 58.6352 55.6878C58.5544 55.6897 58.4754 55.7124 58.4059 55.7538L44.9316 63.7721C44.8619 63.8133 44.8041 63.8718 44.7637 63.9419C44.7233 64.0121 44.7017 64.0915 44.7012 64.1725C44.7006 64.2534 44.721 64.3332 44.7604 64.4039C44.7998 64.4746 44.8568 64.534 44.9259 64.5761C46.378 65.4474 48.0388 65.9095 49.7323 65.9134C51.4257 65.9172 53.0886 65.4628 54.5447 64.5981Z" fill="#4F4F4F"/>
</g>
<defs>
<clipPath id="clip0_56_630">
<rect width="60" height="60" fill="white" transform="translate(0 31.6016) rotate(-30.756)"/>
</clipPath>
</defs>
</svg>
